<svg width="116" height="48" viewBox="0 0 116 48" fill="none" xmlns="http://www.w3.org/2000/svg">
<path d="M104.5 46.4068H33.987C30.4043 46.4068 27.5 43.5025 27.5 39.9198V39.9198C27.5 36.3372 30.4043 33.4329 33.987 33.4329H46.2635C49.984 33.4329 53 30.4169 53 26.6964V26.6964C53 22.976 49.984 19.96 46.2635 19.96H11.5" stroke="#9C9D9E" stroke-width="1.5" stroke-linecap="round"/>
<path d="M71.678 19.7581H82.415V39.1795H64.8232V30.4379L66.8749 23.3613C67.4933 21.2272 69.4519 19.7581 71.678 19.7581Z" fill="#FF7058"/>
<path d="M67.392 30.3498L69.2205 24.0417C69.5357 22.9574 70.5464 22.1985 71.6784 22.1985H79.9717V30.3498H67.392Z" fill="#84DBFF"/>
<path d="M67.3894 30.3439H79.9756V22.1926L67.3894 30.3439Z" fill="#CDD6E0"/>
<path d="M67.392 30.3498L69.2205 24.0417C69.5357 22.9574 70.5464 22.1985 71.6784 22.1985H79.9717L67.392 30.3498Z" fill="#F2F2F2"/>
<path d="M112.71 9.979H85.2899C83.4739 9.979 82 11.4691 82 13.3077V39.9188H116V13.3077C116 11.4692 114.527 9.979 112.71 9.979Z" fill="#FFD15C"/>
<path d="M63.9995 39.1767V42.8416H115.995V39.1767H110.568C109.301 36.9065 106.863 35.3713 104.069 35.3713C101.285 35.3713 98.8474 36.9065 97.5692 39.1767H80.1073C78.8399 36.9065 76.4145 35.3713 73.6197 35.3713C70.825 35.3713 68.3985 36.9065 67.1203 39.1767H63.9995Z" fill="#253A56"/>
<path d="M68.4301 42.8195C68.4301 45.68 70.7537 47.9989 73.6199 47.9989C76.4862 47.9989 78.8076 45.68 78.8076 42.8195C78.8076 39.959 76.4852 37.6401 73.6199 37.6401C70.7526 37.6401 68.4301 39.959 68.4301 42.8195Z" fill="#40596B"/>
<path d="M71.5336 42.8195C71.5336 43.9687 72.4674 44.8995 73.6178 44.8995C74.7693 44.8995 75.7041 43.9687 75.7041 42.8195C75.7041 41.6703 74.7703 40.7395 73.6178 40.7395C72.4674 40.7385 71.5336 41.6704 71.5336 42.8195Z" fill="white"/>
<path d="M98.8831 42.8195C98.8831 45.68 101.208 47.9989 104.073 47.9989C106.939 47.9989 109.263 45.68 109.263 42.8195C109.263 39.959 106.939 37.6401 104.073 37.6401C101.208 37.6401 98.8831 39.959 98.8831 42.8195Z" fill="#40596B"/>
<path d="M101.989 42.8195C101.989 43.9687 102.921 44.8995 104.073 44.8995C105.225 44.8995 106.158 43.9687 106.158 42.8195C106.158 41.6703 105.224 40.7395 104.073 40.7395C102.922 40.7395 101.989 41.6704 101.989 42.8195Z" fill="white"/>
<g clip-path="url(#clip0_14520_43937)">
<path d="M20.0259 9.00802C20.0259 4.03304 15.9848 0 10.9998 0C6.03655 0 2.02388 3.96252 1.9741 8.91563C1.93652 12.6565 4.18428 15.8775 7.40922 17.2744C7.94887 17.5082 8.41048 17.8908 8.74121 18.3764L10.3562 20.7475C10.665 21.2009 11.3345 21.2009 11.6434 20.7475L13.2583 18.3765C13.588 17.8924 14.0472 17.5093 14.5853 17.2766C17.7864 15.8923 20.0259 12.7114 20.0259 9.00802Z" fill="url(#paint0_linear_14520_43937)"/>
<path d="M11.0002 20.6388C10.9479 20.6388 10.8167 20.6248 10.7285 20.4953L9.1136 18.1241C8.73382 17.5665 8.20651 17.1304 7.5887 16.8628C4.41673 15.4887 2.38958 12.3711 2.42427 8.92019C2.44713 6.64384 3.34809 4.51279 4.96117 2.91953C6.57407 1.32643 8.71898 0.448975 11.0002 0.448975H11.0002C15.7292 0.448975 19.5765 4.28863 19.5765 9.00815C19.5765 12.4228 17.5473 15.5067 14.4069 16.8649C13.7926 17.1305 13.2669 17.566 12.8867 18.1242L11.2718 20.4953C11.1836 20.6248 11.0525 20.6388 11.0002 20.6388Z" fill="url(#paint1_linear_14520_43937)"/>
<path d="M10.9999 14.6705C14.1335 14.6705 16.6737 12.1353 16.6737 9.00808C16.6737 5.88084 14.1335 3.3457 10.9999 3.3457C7.8664 3.3457 5.32617 5.88084 5.32617 9.00808C5.32617 12.1353 7.8664 14.6705 10.9999 14.6705Z" fill="url(#paint2_linear_14520_43937)"/>
<path d="M19.7434 11.2508L14.3529 5.87111C13.5143 4.97866 12.3224 4.4209 10.9997 4.4209C8.46118 4.4209 6.40332 6.47463 6.40332 9.00804C6.40332 10.3281 6.96221 11.5176 7.85644 12.3545L13.5374 18.0242C13.8294 17.7055 14.1855 17.4495 14.5853 17.2767C17.1169 16.1818 19.0469 13.963 19.7434 11.2508Z" fill="url(#paint3_linear_14520_43937)"/>
<path d="M10.9997 13.5952C13.5382 13.5952 15.596 11.5414 15.596 9.00804C15.596 6.47463 13.5382 4.4209 10.9997 4.4209C8.46118 4.4209 6.40332 6.47463 6.40332 9.00804C6.40332 11.5414 8.46118 13.5952 10.9997 13.5952Z" fill="url(#paint4_linear_14520_43937)"/>
</g>
<g filter="url(#filter0_d_14520_43937)">
<path d="M109 9.37953C109 8.41066 108.213 7.62524 107.242 7.62524H90.7578C89.787 7.62524 89 8.41066 89 9.37953V12.8881C89 13.211 89.2623 13.4729 89.5859 13.4729H108.414C108.738 13.4729 109 13.211 109 12.8881V9.37953Z" fill="#9C9D9E"/>
<path d="M89 12.8882V24.1936C89 25.1609 89.7886 25.9479 90.7578 25.9479H107.242C108.211 25.9479 109 25.1609 109 24.1936V12.8882H89Z" fill="white"/>
</g>
<path d="M96.0703 6.57182V9.26173C96.0703 9.58467 96.3327 9.84649 96.6562 9.84649C96.9798 9.84649 97.2422 9.58467 97.2422 9.26173V6.57182C97.2422 6.24888 96.9798 5.98706 96.6562 5.98706C96.3327 5.98706 96.0703 6.24888 96.0703 6.57182Z" fill="#333333"/>
<path d="M105.445 6.57182V9.26173C105.445 9.58467 105.708 9.84649 106.031 9.84649C106.355 9.84649 106.617 9.58467 106.617 9.26173V6.57182C106.617 6.24888 106.355 5.98706 106.031 5.98706C105.708 5.98706 105.445 6.24888 105.445 6.57182Z" fill="#333333"/>
<path d="M100.758 6.57182V9.26173C100.758 9.58467 101.02 9.84649 101.344 9.84649C101.667 9.84649 101.93 9.58467 101.93 9.26173V6.57182C101.93 6.24888 101.667 5.98706 101.344 5.98706C101.02 5.98706 100.758 6.24888 100.758 6.57182Z" fill="#333333"/>
<path d="M91.3828 6.57182V9.26173C91.3828 9.58467 91.6452 9.84649 91.9688 9.84649C92.2923 9.84649 92.5547 9.58467 92.5547 9.26173V6.57182C92.5547 6.24888 92.2923 5.98706 91.9688 5.98706C91.6452 5.98706 91.3828 6.24888 91.3828 6.57182Z" fill="#333333"/>
<path d="M101.414 15.5466H99.9846C99.661 15.5466 99.3986 15.8084 99.3986 16.1314C99.3986 16.4543 99.661 16.7162 99.9846 16.7162H100.828V22.3689C100.828 22.6918 101.09 22.9536 101.414 22.9536C101.738 22.9536 102 22.6918 102 22.3689V16.1314C102 15.8084 101.738 15.5466 101.414 15.5466Z" fill="#212121" stroke="#212121" stroke-width="0.1"/>
<path d="M97.9141 19.7256H96.9375V18.751C96.9375 18.4281 96.6752 18.1663 96.3516 18.1663C96.028 18.1663 95.7656 18.4281 95.7656 18.751V19.7256H94.7891C94.4655 19.7256 94.2031 19.9874 94.2031 20.3104C94.2031 20.6333 94.4655 20.8951 94.7891 20.8951H95.7656V21.8698C95.7656 22.1927 96.028 22.4545 96.3516 22.4545C96.6752 22.4545 96.9375 22.1927 96.9375 21.8698V20.8951H97.9141C98.2377 20.8951 98.5 20.6333 98.5 20.3104C98.5 19.9874 98.2377 19.7256 97.9141 19.7256Z" fill="#212121" stroke="#212121" stroke-width="0.1"/>
<defs>
<filter id="filter0_d_14520_43937" x="87" y="6.62524" width="24" height="22.3225" filterUnits="userSpaceOnUse" color-interpolation-filters="sRGB">
<feFlood flood-opacity="0" result="BackgroundImageFix"/>
<feColorMatrix in="SourceAlpha" type="matrix" values="0 0 0 0 0 0 0 0 0 0 0 0 0 0 0 0 0 0 127 0" result="hardAlpha"/>
<feOffset dy="1"/>
<feGaussianBlur stdDeviation="1"/>
<feComposite in2="hardAlpha" operator="out"/>
<feColorMatrix type="matrix" values="0 0 0 0 0 0 0 0 0 0 0 0 0 0 0 0 0 0 0.3 0"/>
<feBlend mode="normal" in2="BackgroundImageFix" result="effect1_dropShadow_14520_43937"/>
<feBlend mode="normal" in="SourceGraphic" in2="effect1_dropShadow_14520_43937" result="shape"/>
</filter>
<linearGradient id="paint0_linear_14520_43937" x1="5.55212" y1="3.57097" x2="23.5257" y2="21.5807" gradientUnits="userSpaceOnUse">
<stop stop-color="#FF7044"/>
<stop offset="1" stop-color="#F92814"/>
</linearGradient>
<linearGradient id="paint1_linear_14520_43937" x1="9.06451" y1="7.08137" x2="2.74838" y2="0.752542" gradientUnits="userSpaceOnUse">
<stop stop-color="#FF7044" stop-opacity="0"/>
<stop offset="1" stop-color="#FFA425"/>
</linearGradient>
<linearGradient id="paint2_linear_14520_43937" x1="14.4211" y1="12.4224" x2="3.12776" y2="1.10634" gradientUnits="userSpaceOnUse">
<stop stop-color="#FF7044"/>
<stop offset="1" stop-color="#F92814"/>
</linearGradient>
<linearGradient id="paint3_linear_14520_43937" x1="16.9024" y1="14.8989" x2="11.897" y2="9.8835" gradientUnits="userSpaceOnUse">
<stop stop-color="#F92814" stop-opacity="0"/>
<stop offset="1" stop-color="#C1272D"/>
</linearGradient>
<linearGradient id="paint4_linear_14520_43937" x1="9.87449" y1="7.29557" x2="12.583" y2="11.4343" gradientUnits="userSpaceOnUse">
<stop stop-color="#F9F7FC"/>
<stop offset="1" stop-color="#F0DDFC"/>
</linearGradient>
<clipPath id="clip0_14520_43937">
<rect width="22" height="21.9559" fill="white"/>
</clipPath>
</defs>
</svg>
